<svg version="1.1" id="Layer_1" xmlns="http://www.w3.org/2000/svg" xmlns:xlink="http://www.w3.org/1999/xlink" x="0px" y="0px"
	 width="100%" viewBox="0 0 266 190" enable-background="new 0 0 266 190" xml:space="preserve">
<path fill="#FFFFFF" opacity="1.000000" stroke="none" 
	d="
M166.000000,191.000000 
	C110.696739,191.000000 55.893482,191.000000 1.045113,191.000000 
	C1.045113,127.731506 1.045113,64.462975 1.045113,1.097219 
	C89.553131,1.097219 178.106400,1.097219 266.829834,1.097219 
	C266.829834,64.332962 266.829834,127.666443 266.829834,191.000000 
	C233.463211,191.000000 199.981613,191.000000 166.000000,191.000000 
M188.922455,109.456146 
	C201.394608,100.127617 201.396652,91.005646 188.432388,82.318176 
	C183.391418,78.940186 177.562973,76.737328 172.106888,74.006020 
	C172.395950,67.730804 173.127869,61.270817 172.900040,54.844849 
	C172.410095,41.025047 163.243256,35.381893 150.788147,41.257824 
	C146.181641,43.431030 141.890259,46.462765 137.873734,49.633213 
	C134.877960,51.997929 133.019867,52.167950 129.873581,49.629215 
	C125.523697,46.119324 120.678589,42.947693 115.573524,40.706394 
	C104.865005,36.004993 96.370422,40.960758 95.203506,52.521488 
	C94.658379,57.922035 94.938232,63.530701 95.760818,68.904732 
	C96.412209,73.160271 95.451279,74.895927 91.339989,76.410965 
	C86.417679,78.224854 81.652130,80.887474 77.382683,83.964951 
	C67.292595,91.238037 67.200066,100.923798 77.333672,107.981384 
	C83.114449,112.007423 89.686714,114.897026 95.014771,117.812531 
	C95.014771,124.460808 94.750015,130.924591 95.069565,137.359360 
	C95.746750,150.996124 104.524139,156.396332 116.904572,150.886658 
	C119.920906,149.544312 122.769203,147.757690 125.531158,145.928345 
	C128.544922,143.932205 131.368622,141.649094 133.164658,140.315582 
	C141.113068,144.573151 147.915192,149.185272 155.397522,151.969208 
	C163.943787,155.149002 170.119110,151.676132 171.872421,142.780304 
	C173.160721,136.243896 172.690292,129.259995 172.247192,122.525269 
	C172.021851,119.100182 171.908279,117.159882 175.783401,115.890488 
	C180.158386,114.457367 184.182236,111.952286 188.922455,109.456146 
z"/>
<path fill="#64DBFB" opacity="1.000000" stroke="none" 
	d="
M188.640625,109.684769 
	C184.182236,111.952286 180.158386,114.457367 175.783401,115.890488 
	C171.908279,117.159882 172.021851,119.100182 172.247192,122.525269 
	C172.690292,129.259995 173.160721,136.243896 171.872421,142.780304 
	C170.119110,151.676132 163.943787,155.149002 155.397522,151.969208 
	C147.915192,149.185272 141.113068,144.573151 133.164658,140.315582 
	C131.368622,141.649094 128.544922,143.932205 125.531158,145.928345 
	C122.769203,147.757690 119.920906,149.544312 116.904572,150.886658 
	C104.524139,156.396332 95.746750,150.996124 95.069565,137.359360 
	C94.750015,130.924591 95.014771,124.460808 95.014771,117.812531 
	C89.686714,114.897026 83.114449,112.007423 77.333672,107.981384 
	C67.200066,100.923798 67.292595,91.238037 77.382683,83.964951 
	C81.652130,80.887474 86.417679,78.224854 91.339989,76.410965 
	C95.451279,74.895927 96.412209,73.160271 95.760818,68.904732 
	C94.938232,63.530701 94.658379,57.922035 95.203506,52.521488 
	C96.370422,40.960758 104.865005,36.004993 115.573524,40.706394 
	C120.678589,42.947693 125.523697,46.119324 129.873581,49.629215 
	C133.019867,52.167950 134.877960,51.997929 137.873734,49.633213 
	C141.890259,46.462765 146.181641,43.431030 150.788147,41.257824 
	C163.243256,35.381893 172.410095,41.025047 172.900040,54.844849 
	C173.127869,61.270817 172.395950,67.730804 172.106888,74.006020 
	C177.562973,76.737328 183.391418,78.940186 188.432388,82.318176 
	C201.396652,91.005646 201.394608,100.127617 188.640625,109.684769 
M123.795868,75.796967 
	C121.920319,77.768875 119.528938,79.454712 118.251465,81.758286 
	C108.695068,98.990730 108.801453,93.057930 117.978722,110.115013 
	C120.783295,115.327667 124.407639,117.671196 130.322540,117.026093 
	C134.113708,116.612610 138.027664,117.228142 141.792007,116.703690 
	C143.846436,116.417458 146.341034,115.194611 147.550842,113.580147 
	C158.766861,98.612648 158.784180,95.387627 148.567398,79.850983 
	C148.201599,79.294716 147.959335,78.559944 147.451447,78.212440 
	C145.874619,77.133575 144.223907,75.410721 142.554337,75.354736 
	C136.586319,75.154594 130.598679,75.539192 123.795868,75.796967 
M100.877785,131.541779 
	C101.090202,134.672592 100.918770,137.889771 101.599319,140.915283 
	C102.812279,146.307755 105.922142,148.262466 111.107239,146.794739 
	C118.247238,144.773666 124.132240,140.605225 129.065582,135.490540 
	C123.698639,123.704872 114.468079,119.319313 102.062485,119.864861 
	C101.675697,123.397842 101.281731,126.996353 100.877785,131.541779 
M167.122513,58.601517 
	C166.772781,55.824978 166.635269,53.000618 166.022949,50.283253 
	C165.133423,46.335789 162.554977,44.216076 158.399582,45.011787 
	C150.310959,46.560669 144.134842,51.223114 139.107742,56.420891 
	C144.283829,68.727783 153.763794,72.506187 166.031326,72.199127 
	C166.389465,68.050392 166.756668,63.796753 167.122513,58.601517 
M78.803978,101.562317 
	C84.270630,106.650040 90.679268,109.802704 98.111832,111.427078 
	C99.964195,106.533531 101.732491,102.073143 103.302872,97.544121 
	C103.636604,96.581642 103.491272,95.286591 103.150696,94.286392 
	C101.865601,90.512314 100.583946,86.715096 98.904289,83.111443 
	C98.433319,82.100983 96.148148,80.844147 95.466522,81.195740 
	C89.754761,84.141937 83.966789,87.071365 78.721092,90.746994 
	C74.812141,93.485977 74.738449,97.429909 78.803978,101.562317 
M185.248917,104.853577 
	C186.278320,104.012177 187.358963,103.225655 188.328598,102.320236 
	C193.592758,97.404655 193.922516,93.974991 188.113434,89.658882 
	C182.798767,85.710129 176.576920,82.982346 170.982239,79.844086 
	C163.573700,91.167343 163.443924,101.207100 170.901367,111.780800 
	C175.398819,109.620308 180.001007,107.409508 185.248917,104.853577 
M141.132126,131.705353 
	C138.648911,133.984344 138.540756,136.115845 141.603073,137.943619 
	C146.418304,140.817642 151.046112,144.141617 156.151978,146.355591 
	C161.569931,148.704865 165.363144,146.532394 166.492340,140.733688 
	C167.884232,133.586014 167.603806,126.383415 165.357544,119.253036 
	C163.887070,119.545258 162.765259,119.935226 161.633545,119.966507 
	C152.991272,120.205437 146.041687,123.423347 141.132126,131.705353 
M126.867607,60.293739 
	C129.333527,58.020660 129.494781,55.877735 126.416489,54.041832 
	C121.597374,51.167683 116.956810,47.864754 111.850906,45.636383 
	C106.474403,43.289909 102.582336,45.489799 101.472382,51.252872 
	C100.094475,58.407150 100.411613,65.617065 102.579926,72.624657 
	C112.235046,71.595222 121.430527,70.437225 126.867607,60.293739 
M135.232422,62.455372 
	C134.548248,62.223007 133.436401,61.605412 133.245514,61.817352 
	C131.140228,64.154663 129.178116,66.620918 126.842445,69.459038 
	C132.004913,69.459038 136.200729,69.459038 141.361801,69.459038 
	C139.072647,66.847137 137.370712,64.905266 135.232422,62.455372 
M157.992966,107.592003 
	C156.729218,109.864807 155.465485,112.137619 153.625885,115.446075 
	C157.740051,114.699905 160.793030,114.146194 164.333237,113.504120 
	C163.038681,109.770058 161.981369,106.720284 160.719223,103.079689 
	C159.701340,104.779724 159.035721,105.891411 157.992966,107.592003 
M156.597885,81.864288 
	C157.840881,83.970505 159.083893,86.076714 160.712585,88.836464 
	C161.954712,85.119820 163.000153,81.991699 164.175919,78.473625 
	C160.553482,77.858864 157.553329,77.349716 153.735077,76.701721 
	C154.838135,78.739517 155.517365,79.994324 156.597885,81.864288 
M127.693375,122.589203 
	C129.605576,125.238914 131.517776,127.888626 133.793549,131.042130 
	C136.614731,127.889603 138.730179,125.525688 141.588287,122.331894 
	C136.378113,122.331894 132.351288,122.331894 127.693375,122.589203 
M111.394753,81.869705 
	C112.190819,80.398636 112.986885,78.927567 114.298706,76.503410 
	C110.122803,77.343735 107.164177,77.939102 103.740311,78.628090 
	C104.942047,82.173012 105.977806,85.228317 107.232910,88.930672 
	C108.736107,86.364799 109.873383,84.423553 111.394753,81.869705 
M110.611641,108.914978 
	C109.642799,107.335655 108.673965,105.756325 107.195900,103.346893 
	C105.869766,107.257454 104.889053,110.149414 103.723610,113.586128 
	C107.306541,114.189491 110.318115,114.696640 114.335449,115.373161 
	C112.779533,112.647491 111.889832,111.088913 110.611641,108.914978 
z"/>
<path fill="#FCFEFF" opacity="1.000000" stroke="none" 
	d="
M124.207169,75.749771 
	C130.598679,75.539192 136.586319,75.154594 142.554337,75.354736 
	C144.223907,75.410721 145.874619,77.133575 147.451447,78.212440 
	C147.959335,78.559944 148.201599,79.294716 148.567398,79.850983 
	C158.784180,95.387627 158.766861,98.612648 147.550842,113.580147 
	C146.341034,115.194611 143.846436,116.417458 141.792007,116.703690 
	C138.027664,117.228142 134.113708,116.612610 130.322540,117.026093 
	C124.407639,117.671196 120.783295,115.327667 117.978722,110.115013 
	C108.801453,93.057930 108.695068,98.990730 118.251465,81.758286 
	C119.528938,79.454712 121.920319,77.768875 124.207169,75.749771 
M137.477737,107.260300 
	C143.987183,104.486908 147.217361,98.803131 145.500977,93.142693 
	C143.521454,86.614449 137.337845,82.810501 131.298416,84.405777 
	C125.187096,86.020042 121.005898,92.247673 122.166557,98.007111 
	C123.519241,104.719406 129.334717,108.529121 137.477737,107.260300 
z"/>
<path fill="#FDFEFF" opacity="1.000000" stroke="none" 
	d="
M100.882774,131.068329 
	C101.281731,126.996353 101.675697,123.397842 102.062485,119.864861 
	C114.468079,119.319313 123.698639,123.704872 129.065582,135.490540 
	C124.132240,140.605225 118.247238,144.773666 111.107239,146.794739 
	C105.922142,148.262466 102.812279,146.307755 101.599319,140.915283 
	C100.918770,137.889771 101.090202,134.672592 100.882774,131.068329 
z"/>
<path fill="#FDFEFF" opacity="1.000000" stroke="none" 
	d="
M167.123184,59.072319 
	C166.756668,63.796753 166.389465,68.050392 166.031326,72.199127 
	C153.763794,72.506187 144.283829,68.727783 139.107742,56.420891 
	C144.134842,51.223114 150.310959,46.560669 158.399582,45.011787 
	C162.554977,44.216076 165.133423,46.335789 166.022949,50.283253 
	C166.635269,53.000618 166.772781,55.824978 167.123184,59.072319 
z"/>
<path fill="#FDFEFF" opacity="1.000000" stroke="none" 
	d="
M78.544426,101.289986 
	C74.738449,97.429909 74.812141,93.485977 78.721092,90.746994 
	C83.966789,87.071365 89.754761,84.141937 95.466522,81.195740 
	C96.148148,80.844147 98.433319,82.100983 98.904289,83.111443 
	C100.583946,86.715096 101.865601,90.512314 103.150696,94.286392 
	C103.491272,95.286591 103.636604,96.581642 103.302872,97.544121 
	C101.732491,102.073143 99.964195,106.533531 98.111832,111.427078 
	C90.679268,109.802704 84.270630,106.650040 78.544426,101.289986 
z"/>
<path fill="#FDFEFF" opacity="1.000000" stroke="none" 
	d="
M184.926056,105.026138 
	C180.001007,107.409508 175.398819,109.620308 170.901367,111.780800 
	C163.443924,101.207100 163.573700,91.167343 170.982239,79.844086 
	C176.576920,82.982346 182.798767,85.710129 188.113434,89.658882 
	C193.922516,93.974991 193.592758,97.404655 188.328598,102.320236 
	C187.358963,103.225655 186.278320,104.012177 184.926056,105.026138 
z"/>
<path fill="#FDFEFF" opacity="1.000000" stroke="none" 
	d="
M141.356262,131.422150 
	C146.041687,123.423347 152.991272,120.205437 161.633545,119.966507 
	C162.765259,119.935226 163.887070,119.545258 165.357544,119.253036 
	C167.603806,126.383415 167.884232,133.586014 166.492340,140.733688 
	C165.363144,146.532394 161.569931,148.704865 156.151978,146.355591 
	C151.046112,144.141617 146.418304,140.817642 141.603073,137.943619 
	C138.540756,136.115845 138.648911,133.984344 141.356262,131.422150 
z"/>
<path fill="#FDFEFF" opacity="1.000000" stroke="none" 
	d="
M126.643555,60.577114 
	C121.430527,70.437225 112.235046,71.595222 102.579926,72.624657 
	C100.411613,65.617065 100.094475,58.407150 101.472382,51.252872 
	C102.582336,45.489799 106.474403,43.289909 111.850906,45.636383 
	C116.956810,47.864754 121.597374,51.167683 126.416489,54.041832 
	C129.494781,55.877735 129.333527,58.020660 126.643555,60.577114 
z"/>
<path fill="#F0FBFF" opacity="1.000000" stroke="none" 
	d="
M135.450607,62.709381 
	C137.370712,64.905266 139.072647,66.847137 141.361801,69.459038 
	C136.200729,69.459038 132.004913,69.459038 126.842445,69.459038 
	C129.178116,66.620918 131.140228,64.154663 133.245514,61.817352 
	C133.436401,61.605412 134.548248,62.223007 135.450607,62.709381 
z"/>
<path fill="#F5FCFF" opacity="1.000000" stroke="none" 
	d="
M158.181549,107.297554 
	C159.035721,105.891411 159.701340,104.779724 160.719223,103.079689 
	C161.981369,106.720284 163.038681,109.770058 164.333237,113.504120 
	C160.793030,114.146194 157.740051,114.699905 153.625885,115.446075 
	C155.465485,112.137619 156.729218,109.864807 158.181549,107.297554 
z"/>
<path fill="#F5FCFF" opacity="1.000000" stroke="none" 
	d="
M156.397247,81.556709 
	C155.517365,79.994324 154.838135,78.739517 153.735077,76.701721 
	C157.553329,77.349716 160.553482,77.858864 164.175919,78.473625 
	C163.000153,81.991699 161.954712,85.119820 160.712585,88.836464 
	C159.083893,86.076714 157.840881,83.970505 156.397247,81.556709 
z"/>
<path fill="#F6FDFF" opacity="1.000000" stroke="none" 
	d="
M128.008911,122.460548 
	C132.351288,122.331894 136.378113,122.331894 141.588287,122.331894 
	C138.730179,125.525688 136.614731,127.889603 133.793549,131.042130 
	C131.517776,127.888626 129.605576,125.238914 128.008911,122.460548 
z"/>
<path fill="#F6FDFF" opacity="1.000000" stroke="none" 
	d="
M111.202698,82.176003 
	C109.873383,84.423553 108.736107,86.364799 107.232910,88.930672 
	C105.977806,85.228317 104.942047,82.173012 103.740311,78.628090 
	C107.164177,77.939102 110.122803,77.343735 114.298706,76.503410 
	C112.986885,78.927567 112.190819,80.398636 111.202698,82.176003 
z"/>
<path fill="#F5FCFF" opacity="1.000000" stroke="none" 
	d="
M110.805885,109.222656 
	C111.889832,111.088913 112.779533,112.647491 114.335449,115.373161 
	C110.318115,114.696640 107.306541,114.189491 103.723610,113.586128 
	C104.889053,110.149414 105.869766,107.257454 107.195900,103.346893 
	C108.673965,105.756325 109.642799,107.335655 110.805885,109.222656 
z"/>
<path fill="#63DAFB" opacity="1.000000" stroke="none" 
	d="
M137.108246,107.406822 
	C129.334717,108.529121 123.519241,104.719406 122.166557,98.007111 
	C121.005898,92.247673 125.187096,86.020042 131.298416,84.405777 
	C137.337845,82.810501 143.521454,86.614449 145.500977,93.142693 
	C147.217361,98.803131 143.987183,104.486908 137.108246,107.406822 
z"/>
</svg>